{
 "asset": {
  "version": "2.0",
  "generator": "games/Summit/make-art.py"
 },
 "scene": 0,
 "scenes": [
  {
   "nodes": [
    0,
    1
   ]
  }
 ],
 "nodes": [
  {
   "name": "Hero",
   "mesh": 0,
   "skin": 0
  },
  {
   "name": "Hips",
   "translation": [
    0,
    0.95,
    0
   ],
   "children": [
    2,
    3,
    4,
    5,
    6
   ]
  },
  {
   "name": "Head",
   "translation": [
    0,
    0.55,
    0
   ]
  },
  {
   "name": "LegL",
   "translation": [
    -0.15,
    -0.04999999999999993,
    0
   ]
  },
  {
   "name": "LegR",
   "translation": [
    0.15,
    -0.04999999999999993,
    0
   ]
  },
  {
   "name": "ArmL",
   "translation": [
    -0.33,
    0.44999999999999996,
    0
   ]
  },
  {
   "name": "ArmR",
   "translation": [
    0.33,
    0.44999999999999996,
    0
   ]
  }
 ],
 "meshes": [
  {
   "name": "Hero",
   "primitives": [
    {
     "attributes": {
      "POSITION": 0,
      "NORMAL": 1,
      "JOINTS_0": 2,
      "WEIGHTS_0": 3
     },
     "indices": 4,
     "material": 0
    },
    {
     "attributes": {
      "POSITION": 5,
      "NORMAL": 6,
      "JOINTS_0": 7,
      "WEIGHTS_0": 8
     },
     "indices": 9,
     "material": 1
    },
    {
     "attributes": {
      "POSITION": 10,
      "NORMAL": 11,
      "JOINTS_0": 12,
      "WEIGHTS_0": 13
     },
     "indices": 14,
     "material": 2
    },
    {
     "attributes": {
      "POSITION": 15,
      "NORMAL": 16,
      "JOINTS_0": 17,
      "WEIGHTS_0": 18
     },
     "indices": 19,
     "material": 3
    }
   ]
  }
 ],
 "materials": [
  {
   "name": "Suit",
   "pbrMetallicRoughness": {
    "baseColorFactor": [
     0.15,
     0.35,
     0.8,
     1
    ],
    "metallicFactor": 0,
    "roughnessFactor": 0.6
   }
  },
  {
   "name": "Skin",
   "pbrMetallicRoughness": {
    "baseColorFactor": [
     0.95,
     0.72,
     0.55,
     1
    ],
    "metallicFactor": 0,
    "roughnessFactor": 0.8
   }
  },
  {
   "name": "Boots",
   "pbrMetallicRoughness": {
    "baseColorFactor": [
     0.12,
     0.1,
     0.1,
     1
    ],
    "metallicFactor": 0,
    "roughnessFactor": 0.7
   }
  },
  {
   "name": "Visor",
   "pbrMetallicRoughness": {
    "baseColorFactor": [
     0.1,
     0.1,
     0.1,
     1
    ],
    "metallicFactor": 0,
    "roughnessFactor": 0.3
   },
   "emissiveFactor": [
    0.3,
    1,
    1
   ]
  }
 ],
 "skins": [
  {
   "inverseBindMatrices": 20,
   "joints": [
    1,
    2,
    3,
    4,
    5,
    6
   ],
   "skeleton": 1
  }
 ],
 "animations": [
  {
   "name": "idle",
   "samplers": [
    {
     "input": 21,
     "output": 22,
     "interpolation": "LINEAR"
    },
    {
     "input": 21,
     "output": 23,
     "interpolation": "LINEAR"
    },
    {
     "input": 21,
     "output": 24,
     "interpolation": "LINEAR"
    }
   ],
   "channels": [
    {
     "sampler": 0,
     "target": {
      "node": 1,
      "path": "translation"
     }
    },
    {
     "sampler": 1,
     "target": {
      "node": 5,
      "path": "rotation"
     }
    },
    {
     "sampler": 2,
     "target": {
      "node": 6,
      "path": "rotation"
     }
    }
   ]
  },
  {
   "name": "run",
   "samplers": [
    {
     "input": 25,
     "output": 26,
     "interpolation": "LINEAR"
    },
    {
     "input": 25,
     "output": 27,
     "interpolation": "LINEAR"
    },
    {
     "input": 25,
     "output": 28,
     "interpolation": "LINEAR"
    },
    {
     "input": 25,
     "output": 29,
     "interpolation": "LINEAR"
    },
    {
     "input": 25,
     "output": 30,
     "interpolation": "LINEAR"
    }
   ],
   "channels": [
    {
     "sampler": 0,
     "target": {
      "node": 1,
      "path": "translation"
     }
    },
    {
     "sampler": 1,
     "target": {
      "node": 3,
      "path": "rotation"
     }
    },
    {
     "sampler": 2,
     "target": {
      "node": 4,
      "path": "rotation"
     }
    },
    {
     "sampler": 3,
     "target": {
      "node": 5,
      "path": "rotation"
     }
    },
    {
     "sampler": 4,
     "target": {
      "node": 6,
      "path": "rotation"
     }
    }
   ]
  },
  {
   "name": "jump",
   "samplers": [
    {
     "input": 31,
     "output": 32,
     "interpolation": "LINEAR"
    },
    {
     "input": 31,
     "output": 33,
     "interpolation": "LINEAR"
    },
    {
     "input": 31,
     "output": 34,
     "interpolation": "LINEAR"
    },
    {
     "input": 31,
     "output": 35,
     "interpolation": "LINEAR"
    }
   ],
   "channels": [
    {
     "sampler": 0,
     "target": {
      "node": 3,
      "path": "rotation"
     }
    },
    {
     "sampler": 1,
     "target": {
      "node": 4,
      "path": "rotation"
     }
    },
    {
     "sampler": 2,
     "target": {
      "node": 5,
      "path": "rotation"
     }
    },
    {
     "sampler": 3,
     "target": {
      "node": 6,
      "path": "rotation"
     }
    }
   ]
  }
 ],
 "buffers": [
  {
   "byteLength": 9632,
   "uri": "data:application/octet-stream;base64,"
  }
 ],
 "bufferViews": [
  {
   "buffer": 0,
   "byteOffset": 0,
   "byteLength": 864,
   "target": 34962
  },
  {
   "buffer": 0,
   "byteOffset": 864,
   "byteLength": 864,
   "target": 34962
  },
  {
   "buffer": 0,
   "byteOffset": 1728,
   "byteLength": 576,
   "target": 34962
  },
  {
   "buffer": 0,
   "byteOffset": 2304,
   "byteLength": 1152,
   "target": 34962
  },
  {
   "buffer": 0,
   "byteOffset": 3456,
   "byteLength": 216,
   "target": 34963
  },
  {
   "buffer": 0,
   "byteOffset": 3672,
   "byteLength": 288,
   "target": 34962
  },
  {
   "buffer": 0,
   "byteOffset": 3960,
   "byteLength": 288,
   "target": 34962
  },
  {
   "buffer": 0,
   "byteOffset": 4248,
   "byteLength": 192,
   "target": 34962
  },
  {
   "buffer": 0,
   "byteOffset": 4440,
   "byteLength": 384,
   "target": 34962
  },
  {
   "buffer": 0,
   "byteOffset": 4824,
   "byteLength": 72,
   "target": 34963
  },
  {
   "buffer": 0,
   "byteOffset": 4896,
   "byteLength": 576,
   "target": 34962
  },
  {
   "buffer": 0,
   "byteOffset": 5472,
   "byteLength": 576,
   "target": 34962
  },
  {
   "buffer": 0,
   "byteOffset": 6048,
   "byteLength": 384,
   "target": 34962
  },
  {
   "buffer": 0,
   "byteOffset": 6432,
   "byteLength": 768,
   "target": 34962
  },
  {
   "buffer": 0,
   "byteOffset": 7200,
   "byteLength": 144,
   "target": 34963
  },
  {
   "buffer": 0,
   "byteOffset": 7344,
   "byteLength": 288,
   "target": 34962
  },
  {
   "buffer": 0,
   "byteOffset": 7632,
   "byteLength": 288,
   "target": 34962
  },
  {
   "buffer": 0,
   "byteOffset": 7920,
   "byteLength": 192,
   "target": 34962
  },
  {
   "buffer": 0,
   "byteOffset": 8112,
   "byteLength": 384,
   "target": 34962
  },
  {
   "buffer": 0,
   "byteOffset": 8496,
   "byteLength": 72,
   "target": 34963
  },
  {
   "buffer": 0,
   "byteOffset": 8568,
   "byteLength": 384
  },
  {
   "buffer": 0,
   "byteOffset": 8952,
   "byteLength": 12
  },
  {
   "buffer": 0,
   "byteOffset": 8964,
   "byteLength": 36
  },
  {
   "buffer": 0,
   "byteOffset": 9000,
   "byteLength": 48
  },
  {
   "buffer": 0,
   "byteOffset": 9048,
   "byteLength": 48
  },
  {
   "buffer": 0,
   "byteOffset": 9096,
   "byteLength": 20
  },
  {
   "buffer": 0,
   "byteOffset": 9116,
   "byteLength": 60
  },
  {
   "buffer": 0,
   "byteOffset": 9176,
   "byteLength": 80
  },
  {
   "buffer": 0,
   "byteOffset": 9256,
   "byteLength": 80
  },
  {
   "buffer": 0,
   "byteOffset": 9336,
   "byteLength": 80
  },
  {
   "buffer": 0,
   "byteOffset": 9416,
   "byteLength": 80
  },
  {
   "buffer": 0,
   "byteOffset": 9496,
   "byteLength": 8
  },
  {
   "buffer": 0,
   "byteOffset": 9504,
   "byteLength": 32
  },
  {
   "buffer": 0,
   "byteOffset": 9536,
   "byteLength": 32
  },
  {
   "buffer": 0,
   "byteOffset": 9568,
   "byteLength": 32
  },
  {
   "buffer": 0,
   "byteOffset": 9600,
   "byteLength": 32
  }
 ],
 "accessors": [
  {
   "bufferView": 0,
   "componentType": 5126,
   "count": 72,
   "type": "VEC3",
   "min": [
    -0.41999999999999993,
    0.7999999999999999,
    -0.15
   ],
   "max": [
    0.41999999999999993,
    1.46,
    0.15
   ]
  },
  {
   "bufferView": 1,
   "componentType": 5126,
   "count": 72,
   "type": "VEC3"
  },
  {
   "bufferView": 2,
   "componentType": 5123,
   "count": 72,
   "type": "VEC4"
  },
  {
   "bufferView": 3,
   "componentType": 5126,
   "count": 72,
   "type": "VEC4"
  },
  {
   "bufferView": 4,
   "componentType": 5123,
   "count": 108,
   "type": "SCALAR"
  },
  {
   "bufferView": 5,
   "componentType": 5126,
   "count": 24,
   "type": "VEC3",
   "min": [
    -0.18,
    1.46,
    -0.18
   ],
   "max": [
    0.18,
    1.7999999999999998,
    0.18
   ]
  },
  {
   "bufferView": 6,
   "componentType": 5126,
   "count": 24,
   "type": "VEC3"
  },
  {
   "bufferView": 7,
   "componentType": 5123,
   "count": 24,
   "type": "VEC4"
  },
  {
   "bufferView": 8,
   "componentType": 5126,
   "count": 24,
   "type": "VEC4"
  },
  {
   "bufferView": 9,
   "componentType": 5123,
   "count": 36,
   "type": "SCALAR"
  },
  {
   "bufferView": 10,
   "componentType": 5126,
   "count": 48,
   "type": "VEC3",
   "min": [
    -0.24,
    0.0,
    -0.1
   ],
   "max": [
    0.24,
    0.9,
    0.12
   ]
  },
  {
   "bufferView": 11,
   "componentType": 5126,
   "count": 48,
   "type": "VEC3"
  },
  {
   "bufferView": 12,
   "componentType": 5123,
   "count": 48,
   "type": "VEC4"
  },
  {
   "bufferView": 13,
   "componentType": 5126,
   "count": 48,
   "type": "VEC4"
  },
  {
   "bufferView": 14,
   "componentType": 5123,
   "count": 72,
   "type": "SCALAR"
  },
  {
   "bufferView": 15,
   "componentType": 5126,
   "count": 24,
   "type": "VEC3",
   "min": [
    -0.13,
    1.6,
    0.17
   ],
   "max": [
    0.13,
    1.67,
    0.21
   ]
  },
  {
   "bufferView": 16,
   "componentType": 5126,
   "count": 24,
   "type": "VEC3"
  },
  {
   "bufferView": 17,
   "componentType": 5123,
   "count": 24,
   "type": "VEC4"
  },
  {
   "bufferView": 18,
   "componentType": 5126,
   "count": 24,
   "type": "VEC4"
  },
  {
   "bufferView": 19,
   "componentType": 5123,
   "count": 36,
   "type": "SCALAR"
  },
  {
   "bufferView": 20,
   "componentType": 5126,
   "count": 6,
   "type": "MAT4"
  },
  {
   "bufferView": 21,
   "componentType": 5126,
   "count": 3,
   "type": "SCALAR",
   "min": [
    0
   ],
   "max": [
    2
   ]
  },
  {
   "bufferView": 22,
   "componentType": 5126,
   "count": 3,
   "type": "VEC3"
  },
  {
   "bufferView": 23,
   "componentType": 5126,
   "count": 3,
   "type": "VEC4"
  },
  {
   "bufferView": 24,
   "componentType": 5126,
   "count": 3,
   "type": "VEC4"
  },
  {
   "bufferView": 25,
   "componentType": 5126,
   "count": 5,
   "type": "SCALAR",
   "min": [
    0
   ],
   "max": [
    0.6
   ]
  },
  {
   "bufferView": 26,
   "componentType": 5126,
   "count": 5,
   "type": "VEC3"
  },
  {
   "bufferView": 27,
   "componentType": 5126,
   "count": 5,
   "type": "VEC4"
  },
  {
   "bufferView": 28,
   "componentType": 5126,
   "count": 5,
   "type": "VEC4"
  },
  {
   "bufferView": 29,
   "componentType": 5126,
   "count": 5,
   "type": "VEC4"
  },
  {
   "bufferView": 30,
   "componentType": 5126,
   "count": 5,
   "type": "VEC4"
  },
  {
   "bufferView": 31,
   "componentType": 5126,
   "count": 2,
   "type": "SCALAR",
   "min": [
    0
   ],
   "max": [
    1
   ]
  },
  {
   "bufferView": 32,
   "componentType": 5126,
   "count": 2,
   "type": "VEC4"
  },
  {
   "bufferView": 33,
   "componentType": 5126,
   "count": 2,
   "type": "VEC4"
  },
  {
   "bufferView": 34,
   "componentType": 5126,
   "count": 2,
   "type": "VEC4"
  },
  {
   "bufferView": 35,
   "componentType": 5126,
   "count": 2,
   "type": "VEC4"
  }
 ]
}