{"asset": {"version": "2.0", "generator": "games/Jelly/make-jelly.py"}, "scene": 0, "scenes": [{"nodes": [0, 1]}], "nodes": [{"name": "Body", "mesh": 0}, {"name": "Eyes", "mesh": 1}], "meshes": [{"name": "Body", "weights": [0.0, 0.0], "extras": {"targetNames": ["Squash", "Stretch"]}, "primitives": [{"attributes": {"POSITION": 0, "NORMAL": 1}, "indices": 2, "material": 0, "targets": [{"POSITION": 3}, {"POSITION": 4}]}]}, {"name": "Eyes", "weights": [0.0, 0.0], "extras": {"targetNames": ["Squash", "Stretch"]}, "primitives": [{"attributes": {"POSITION": 5, "NORMAL": 6}, "indices": 7, "material": 1, "targets": [{"POSITION": 8}, {"POSITION": 9}]}]}], "materials": [{"name": "Jelly", "pbrMetallicRoughness": {"baseColorFactor": [0.25, 0.85, 0.45, 1], "metallicFactor": 0, "roughnessFactor": 0.25}}, {"name": "Eye", "pbrMetallicRoughness": {"baseColorFactor": [0.05, 0.05, 0.08, 1], "metallicFactor": 0, "roughnessFactor": 0.1}}], "buffers": [{"byteLength": 33840, "uri": "data:application/octet-stream;base64,"}], "bufferViews": [{"buffer": 0, "byteOffset": 0, "byteLength": 5100, "target": 34962}, {"buffer": 0, "byteOffset": 5100, "byteLength": 5100, "target": 34962}, {"buffer": 0, "byteOffset": 10200, "byteLength": 4608, "target": 34963}, {"buffer": 0, "byteOffset": 14808, "byteLength": 5100, "target": 34962}, {"buffer": 0, "byteOffset": 19908, "byteLength": 5100, "target": 34962}, {"buffer": 0, "byteOffset": 25008, "byteLength": 1848, "target": 34962}, {"buffer": 0, "byteOffset": 26856, "byteLength": 1848, "target": 34962}, {"buffer": 0, "byteOffset": 28704, "byteLength": 1440, "target": 34963}, {"buffer": 0, "byteOffset": 30144, "byteLength": 1848, "target": 34962}, {"buffer": 0, "byteOffset": 31992, "byteLength": 1848, "target": 34962}], "accessors": [{"bufferView": 0, "componentType": 5126, "count": 425, "type": "VEC3", "min": [-0.5, 0.0, -0.5], "max": [0.5, 1.0, 0.5]}, {"bufferView": 1, "componentType": 5126, "count": 425, "type": "VEC3"}, {"bufferView": 2, "componentType": 5123, "count": 2304, "type": "SCALAR"}, {"bufferView": 3, "componentType": 5126, "count": 425, "type": "VEC3", "min": [-0.125, -0.4, -0.125], "max": [0.125, 0.0, 0.125]}, {"bufferView": 4, "componentType": 5126, "count": 425, "type": "VEC3", "min": [-0.07500000000000001, 0.0, -0.07500000000000001], "max": [0.07500000000000001, 0.3500000000000001, 0.07500000000000001]}, {"bufferView": 5, "componentType": 5126, "count": 154, "type": "VEC3", "min": [-0.25, 0.5800000000000001, -0.5060845213036123], "max": [0.25, 0.74, -0.35391547869638773]}, {"bufferView": 6, "componentType": 5126, "count": 154, "type": "VEC3"}, {"bufferView": 7, "componentType": 5123, "count": 720, "type": "SCALAR"}, {"bufferView": 8, "componentType": 5126, "count": 154, "type": "VEC3", "min": [-0.0625, -0.296, -0.12652113032590306], "max": [0.0625, -0.23200000000000004, -0.0884788696740969]}, {"bufferView": 9, "componentType": 5126, "count": 154, "type": "VEC3", "min": [-0.037500000000000006, 0.20300000000000007, 0.05308732180445819], "max": [0.037500000000000006, 0.259, 0.07591267819554187]}]}