# path-ns, made by make-art.py.
mtllib path-ns.mtl
o gravel
usemtl gravel
v 2.000 0.000 8.000
v 2.000 0.000 -8.000
v 2.000 0.030 -8.000
v 2.000 0.030 8.000
v -2.000 0.000 -8.000
v -2.000 0.000 8.000
v -2.000 0.030 8.000
v -2.000 0.030 -8.000
v -2.000 0.030 8.000
v 2.000 0.030 8.000
v 2.000 0.030 -8.000
v -2.000 0.030 -8.000
v -2.000 0.000 -8.000
v 2.000 0.000 -8.000
v 2.000 0.000 8.000
v -2.000 0.000 8.000
v -2.000 0.000 8.000
v 2.000 0.000 8.000
v 2.000 0.030 8.000
v -2.000 0.030 8.000
v 2.000 0.000 -8.000
v -2.000 0.000 -8.000
v -2.000 0.030 -8.000
v 2.000 0.030 -8.000
vt -4.000 0.000
vt 4.000 0.000
vt 4.000 0.015
vt -4.000 0.015
vt -4.000 0.000
vt 4.000 0.000
vt 4.000 0.015
vt -4.000 0.015
vt -1.000 -4.000
vt 1.000 -4.000
vt 1.000 4.000
vt -1.000 4.000
vt -1.000 -4.000
vt 1.000 -4.000
vt 1.000 4.000
vt -1.000 4.000
vt -1.000 0.000
vt 1.000 0.000
vt 1.000 0.015
vt -1.000 0.015
vt -1.000 0.000
vt 1.000 0.000
vt 1.000 0.015
vt -1.000 0.015
vn 1.000 0.000 0.000
vn 1.000 0.000 0.000
vn 1.000 0.000 0.000
vn 1.000 0.000 0.000
vn -1.000 0.000 0.000
vn -1.000 0.000 0.000
vn -1.000 0.000 0.000
vn -1.000 0.000 0.000
vn 0.000 1.000 0.000
vn 0.000 1.000 0.000
vn 0.000 1.000 0.000
vn 0.000 1.000 0.000
vn 0.000 -1.000 0.000
vn 0.000 -1.000 0.000
vn 0.000 -1.000 0.000
vn 0.000 -1.000 0.000
vn 0.000 0.000 1.000
vn 0.000 0.000 1.000
vn 0.000 0.000 1.000
vn 0.000 0.000 1.000
vn 0.000 0.000 -1.000
vn 0.000 0.000 -1.000
vn 0.000 0.000 -1.000
vn 0.000 0.000 -1.000
f 1/1/1 2/2/2 3/3/3
f 1/1/1 3/3/3 4/4/4
f 5/5/5 6/6/6 7/7/7
f 5/5/5 7/7/7 8/8/8
f 9/9/9 10/10/10 11/11/11
f 9/9/9 11/11/11 12/12/12
f 13/13/13 14/14/14 15/15/15
f 13/13/13 15/15/15 16/16/16
f 17/17/17 18/18/18 19/19/19
f 17/17/17 19/19/19 20/20/20
f 21/21/21 22/22/22 23/23/23
f 21/21/21 23/23/23 24/24/24
