{
 "asset": {
  "version": "2.0",
  "generator": "3DEngine build/make-arm-gltf.py"
 },
 "scene": 0,
 "scenes": [
  {
   "nodes": [
    0,
    1
   ]
  }
 ],
 "nodes": [
  {
   "name": "Arm",
   "mesh": 0,
   "skin": 0
  },
  {
   "name": "Shoulder",
   "children": [
    2
   ]
  },
  {
   "name": "Elbow",
   "translation": [
    0,
    1,
    0
   ]
  }
 ],
 "meshes": [
  {
   "name": "Arm",
   "primitives": [
    {
     "attributes": {
      "POSITION": 0,
      "NORMAL": 1,
      "JOINTS_0": 2,
      "WEIGHTS_0": 3
     },
     "indices": 4
    }
   ]
  }
 ],
 "skins": [
  {
   "inverseBindMatrices": 5,
   "joints": [
    1,
    2
   ],
   "skeleton": 1
  }
 ],
 "animations": [
  {
   "name": "bend",
   "samplers": [
    {
     "input": 6,
     "output": 7,
     "interpolation": "LINEAR"
    }
   ],
   "channels": [
    {
     "sampler": 0,
     "target": {
      "node": 2,
      "path": "rotation"
     }
    }
   ]
  }
 ],
 "buffers": [
  {
   "byteLength": 2636,
   "uri": "data:application/octet-stream;base64,"
  }
 ],
 "bufferViews": [
  {
   "buffer": 0,
   "byteOffset": 0,
   "byteLength": 576,
   "target": 34962
  },
  {
   "buffer": 0,
   "byteOffset": 576,
   "byteLength": 576,
   "target": 34962
  },
  {
   "buffer": 0,
   "byteOffset": 1152,
   "byteLength": 384,
   "target": 34962
  },
  {
   "buffer": 0,
   "byteOffset": 1536,
   "byteLength": 768,
   "target": 34962
  },
  {
   "buffer": 0,
   "byteOffset": 2304,
   "byteLength": 144,
   "target": 34963
  },
  {
   "buffer": 0,
   "byteOffset": 2448,
   "byteLength": 128
  },
  {
   "buffer": 0,
   "byteOffset": 2576,
   "byteLength": 12
  },
  {
   "buffer": 0,
   "byteOffset": 2588,
   "byteLength": 48
  }
 ],
 "accessors": [
  {
   "bufferView": 0,
   "componentType": 5126,
   "count": 48,
   "type": "VEC3",
   "min": [
    -0.2,
    0.0,
    -0.2
   ],
   "max": [
    0.2,
    2.0,
    0.2
   ]
  },
  {
   "bufferView": 1,
   "componentType": 5126,
   "count": 48,
   "type": "VEC3"
  },
  {
   "bufferView": 2,
   "componentType": 5123,
   "count": 48,
   "type": "VEC4"
  },
  {
   "bufferView": 3,
   "componentType": 5126,
   "count": 48,
   "type": "VEC4"
  },
  {
   "bufferView": 4,
   "componentType": 5123,
   "count": 72,
   "type": "SCALAR"
  },
  {
   "bufferView": 5,
   "componentType": 5126,
   "count": 2,
   "type": "MAT4"
  },
  {
   "bufferView": 6,
   "componentType": 5126,
   "count": 3,
   "type": "SCALAR",
   "min": [
    0.0
   ],
   "max": [
    1.0
   ]
  },
  {
   "bufferView": 7,
   "componentType": 5126,
   "count": 3,
   "type": "VEC4"
  }
 ]
}