{
 "asset": {
  "version": "2.0",
  "generator": "3DEngine build/make-morph-gltf.py"
 },
 "scene": 0,
 "scenes": [
  {
   "nodes": [
    0
   ]
  }
 ],
 "nodes": [
  {
   "name": "Strip",
   "mesh": 0
  }
 ],
 "meshes": [
  {
   "name": "Strip",
   "weights": [
    0.0
   ],
   "extras": {
    "targetNames": [
     "Raise"
    ]
   },
   "primitives": [
    {
     "attributes": {
      "POSITION": 0,
      "NORMAL": 1
     },
     "indices": 3,
     "targets": [
      {
       "POSITION": 2
      }
     ]
    }
   ]
  }
 ],
 "animations": [
  {
   "name": "pulse",
   "samplers": [
    {
     "input": 4,
     "output": 5,
     "interpolation": "LINEAR"
    }
   ],
   "channels": [
    {
     "sampler": 0,
     "target": {
      "node": 0,
      "path": "weights"
     }
    }
   ]
  }
 ],
 "buffers": [
  {
   "byteLength": 180,
   "uri": "data:application/octet-stream;base64,"
  }
 ],
 "bufferViews": [
  {
   "buffer": 0,
   "byteOffset": 0,
   "byteLength": 48,
   "target": 34962
  },
  {
   "buffer": 0,
   "byteOffset": 48,
   "byteLength": 48,
   "target": 34962
  },
  {
   "buffer": 0,
   "byteOffset": 96,
   "byteLength": 48,
   "target": 34962
  },
  {
   "buffer": 0,
   "byteOffset": 144,
   "byteLength": 12,
   "target": 34963
  },
  {
   "buffer": 0,
   "byteOffset": 156,
   "byteLength": 12
  },
  {
   "buffer": 0,
   "byteOffset": 168,
   "byteLength": 12
  }
 ],
 "accessors": [
  {
   "bufferView": 0,
   "componentType": 5126,
   "count": 4,
   "type": "VEC3",
   "min": [
    -1,
    0,
    0
   ],
   "max": [
    1,
    1,
    0
   ]
  },
  {
   "bufferView": 1,
   "componentType": 5126,
   "count": 4,
   "type": "VEC3"
  },
  {
   "bufferView": 2,
   "componentType": 5126,
   "count": 4,
   "type": "VEC3",
   "min": [
    0,
    0,
    0
   ],
   "max": [
    0,
    1,
    0
   ]
  },
  {
   "bufferView": 3,
   "componentType": 5123,
   "count": 6,
   "type": "SCALAR"
  },
  {
   "bufferView": 4,
   "componentType": 5126,
   "count": 3,
   "type": "SCALAR",
   "min": [
    0.0
   ],
   "max": [
    1.0
   ]
  },
  {
   "bufferView": 5,
   "componentType": 5126,
   "count": 3,
   "type": "SCALAR"
  }
 ]
}